<svg width="80" height="80" viewBox="0 0 80 80" fill="none" xmlns="http://www.w3.org/2000/svg">
    <g clip-path="url(#clip0)">
        <path d="M63.2185 38.6465L52.6562 33.4089V20.125C52.6562 20.1166 52.6555 20.1081 52.6555 20.0997C52.6453 19.5801 52.3541 19.1102 51.889 18.8729C51.8857 18.8711 51.8824 18.8689 51.8788 18.8671L40.6288 13.2421C40.2329 13.0443 39.7671 13.0443 39.3712 13.2421C36.9312 14.4623 28.1952 18.8297 28.111 18.8729C27.6305 19.1183 27.3438 19.6094 27.3438 20.125V33.4089L16.7815 38.6465C16.316 38.8761 16 39.3628 16 39.9062V54.0625C16 54.5968 16.3029 55.0849 16.7815 55.3222L28.1252 60.9472C28.1326 60.9509 28.1406 60.9535 28.1479 60.9571C28.5479 61.1468 29.0038 61.1333 29.3788 60.9454L40 55.6346L50.6212 60.9454C50.9969 61.1336 51.4543 61.1461 51.8521 60.9571C51.8594 60.9535 51.8674 60.9509 51.8748 60.9472L63.2185 55.3222C63.6971 55.0849 64 54.5968 64 54.0625V39.9062C64 39.3847 63.7063 38.89 63.2185 38.6465ZM28.7474 43.9602L20.5718 39.9062L28.7474 35.8523L36.8557 39.9062L28.7474 43.9602ZM41.4062 26.619L49.8438 22.4003V33.4122L41.4062 37.631V26.619ZM38.5938 37.631L30.1562 33.4122V22.4003L38.5938 26.619V37.631ZM41.4062 42.1815L49.8438 46.4002V57.4122L41.4062 53.1935V42.1815ZM51.2526 43.9602L43.1443 39.9062L51.2526 35.8523L59.4282 39.9062L51.2526 43.9602ZM40 16.0721L48.1057 20.125L40 24.1778L31.8943 20.125L40 16.0721ZM18.8125 42.1731L27.3438 46.4035V57.4206L18.8125 53.1902V42.1731ZM38.5938 53.1935L30.1562 57.4122V46.4002L38.5938 42.1815V53.1935ZM61.1875 53.1902L52.6562 57.4206V46.4035L61.1875 42.1731V53.1902Z"
              fill="#fff"/>
    </g>
    <defs>
        <clipPath id="clip0">
            <path fill="#fff" transform="translate(16 13)" d="M0 0H48V48H0z"/>
        </clipPath>
    </defs>
</svg>