<svg width="80" height="80" viewBox="0 0 80 80" fill="none" xmlns="http://www.w3.org/2000/svg">
    <path d="M59.9688 32.9688C57.702 32.9688 55.6836 34.048 54.3969 35.7185L49.786 33.4003C49.9449 32.8141 50.0312 32.1983 50.0312 31.5625C50.0312 27.6855 46.877 24.5312 43 24.5312C40.7639 24.5312 38.7697 25.5818 37.481 27.2138L32.8173 24.869C32.9762 24.2828 33.0625 23.6671 33.0625 23.0312C33.0625 19.1542 29.9083 16 26.0312 16C22.1542 16 19 19.1542 19 23.0312C19 26.9083 22.1542 30.0625 26.0312 30.0625C28.2674 30.0625 30.2615 29.0119 31.5502 27.3799L36.214 29.7247C36.0551 30.3109 35.9688 30.9267 35.9688 31.5625C35.9688 32.1875 36.0518 32.7933 36.2056 33.3705L31.5694 35.6757C30.2814 34.0297 28.2785 32.9688 26.0312 32.9688C22.1542 32.9688 19 36.123 19 40C19 43.877 22.1542 47.0312 26.0312 47.0312C28.2674 47.0312 30.2615 45.9807 31.5502 44.3487L36.1907 46.6818C36.0458 47.2431 35.9688 47.8315 35.9688 48.4375C35.9688 49.0923 36.0606 49.7257 36.2289 50.3276L31.5694 52.6444C30.2814 50.9985 28.2785 49.9375 26.0312 49.9375C22.1542 49.9375 19 53.0917 19 56.9688C19 60.8458 22.1542 64 26.0312 64C29.9083 64 33.0625 60.8458 33.0625 56.9688C33.0625 56.3438 32.9794 55.738 32.8257 55.1608L37.5148 52.8292C38.8045 54.4367 40.7835 55.4688 43 55.4688C46.877 55.4688 50.0312 52.3145 50.0312 48.4375C50.0312 47.8424 49.9563 47.2646 49.8165 46.7124L54.4836 44.3917C55.7733 45.9993 57.7522 47.0312 59.9688 47.0312C63.8458 47.0312 67 43.877 67 40C67 36.123 63.8458 32.9688 59.9688 32.9688ZM26.0312 27.25C23.705 27.25 21.8125 25.3575 21.8125 23.0312C21.8125 20.705 23.705 18.8125 26.0312 18.8125C28.3575 18.8125 30.25 20.705 30.25 23.0312C30.25 25.3575 28.3575 27.25 26.0312 27.25ZM26.0312 44.2188C23.705 44.2188 21.8125 42.3262 21.8125 40C21.8125 37.6738 23.705 35.7812 26.0312 35.7812C28.3575 35.7812 30.25 37.6738 30.25 40C30.25 42.3262 28.3575 44.2188 26.0312 44.2188ZM26.0312 61.1875C23.705 61.1875 21.8125 59.295 21.8125 56.9688C21.8125 54.6425 23.705 52.75 26.0312 52.75C28.3575 52.75 30.25 54.6425 30.25 56.9688C30.25 59.295 28.3575 61.1875 26.0312 61.1875ZM43 27.3438C45.3262 27.3438 47.2188 29.2363 47.2188 31.5625C47.2188 33.8887 45.3262 35.7812 43 35.7812C40.6738 35.7812 38.7812 33.8887 38.7812 31.5625C38.7812 29.2363 40.6738 27.3438 43 27.3438ZM43 52.6562C40.6738 52.6562 38.7812 50.7637 38.7812 48.4375C38.7812 46.1113 40.6738 44.2188 43 44.2188C45.3262 44.2188 47.2188 46.1113 47.2188 48.4375C47.2188 50.7637 45.3262 52.6562 43 52.6562ZM48.5912 44.1806C47.3055 42.496 45.278 41.4062 43 41.4062C40.7332 41.4062 38.7149 42.4855 37.4282 44.156L32.8173 41.8378C32.9762 41.2516 33.0625 40.6358 33.0625 40C33.0625 39.3751 32.9794 38.7692 32.8257 38.192L37.4618 35.8868C38.7499 37.5328 40.7527 38.5938 43 38.5938C45.2361 38.5938 47.2303 37.5432 48.519 35.9112L53.1594 38.2443C53.0146 38.8056 52.9375 39.394 52.9375 40C52.9375 40.6548 53.0294 41.2882 53.1977 41.8901L48.5912 44.1806ZM59.9688 44.2188C57.6425 44.2188 55.75 42.3262 55.75 40C55.75 37.6738 57.6425 35.7812 59.9688 35.7812C62.295 35.7812 64.1875 37.6738 64.1875 40C64.1875 42.3262 62.295 44.2188 59.9688 44.2188Z"
          fill="#fff"/>
</svg>