<svg width="97" height="40" viewBox="0 0 97 40" fill="none" xmlns="http://www.w3.org/2000/svg">
    <path d="M55.1819 25C55.0645 25 54.9739 24.968 54.9099 24.904C54.8459 24.8293 54.8139 24.7387 54.8139 24.632V14.184C54.8139 14.0667 54.8459 13.976 54.9099 13.912C54.9739 13.8373 55.0645 13.8 55.1819 13.8H61.7899C61.9072 13.8 61.9979 13.8373 62.0619 13.912C62.1259 13.976 62.1579 14.0667 62.1579 14.184V14.792C62.1579 14.9093 62.1259 15 62.0619 15.064C61.9979 15.128 61.9072 15.16 61.7899 15.16H56.3499V18.664H61.4379C61.5552 18.664 61.6459 18.7013 61.7099 18.776C61.7739 18.84 61.8059 18.9307 61.8059 19.048V19.64C61.8059 19.7467 61.7739 19.8373 61.7099 19.912C61.6459 19.976 61.5552 20.008 61.4379 20.008H56.3499V23.64H61.9179C62.0352 23.64 62.1259 23.672 62.1899 23.736C62.2539 23.8 62.2859 23.8907 62.2859 24.008V24.632C62.2859 24.7387 62.2539 24.8293 62.1899 24.904C62.1259 24.968 62.0352 25 61.9179 25H55.1819ZM67.877 25C67.7703 25 67.6797 24.968 67.605 24.904C67.541 24.8293 67.509 24.7387 67.509 24.632V20.856L63.653 14.328C63.6423 14.296 63.6317 14.264 63.621 14.232C63.6103 14.2 63.605 14.1627 63.605 14.12C63.605 14.0347 63.637 13.96 63.701 13.896C63.765 13.832 63.8397 13.8 63.925 13.8H64.757C64.853 13.8 64.9383 13.8267 65.013 13.88C65.0877 13.9227 65.141 13.9867 65.173 14.072L68.293 19.256L71.413 14.072C71.4663 13.9867 71.525 13.9227 71.589 13.88C71.6637 13.8267 71.749 13.8 71.845 13.8H72.661C72.757 13.8 72.837 13.832 72.901 13.896C72.965 13.96 72.997 14.0347 72.997 14.12C72.997 14.1627 72.9917 14.2 72.981 14.232C72.9703 14.264 72.9543 14.296 72.933 14.328L69.093 20.856V24.632C69.093 24.7387 69.0557 24.8293 68.981 24.904C68.917 24.968 68.8263 25 68.709 25H67.877ZM76.7644 25C76.6257 25 76.5137 24.9627 76.4284 24.888C76.3537 24.8133 76.3004 24.7067 76.2684 24.568L74.2044 14.296C74.1937 14.2533 74.1884 14.216 74.1884 14.184C74.1884 14.152 74.1884 14.1307 74.1884 14.12C74.1884 14.0347 74.2204 13.96 74.2844 13.896C74.3484 13.832 74.423 13.8 74.5084 13.8H75.3404C75.5644 13.8 75.6924 13.8907 75.7244 14.072L77.3564 22.328L79.0844 16.664C79.1164 16.568 79.1697 16.4827 79.2444 16.408C79.3297 16.3227 79.447 16.28 79.5964 16.28H80.1884C80.3484 16.28 80.4657 16.3227 80.5404 16.408C80.615 16.4827 80.663 16.568 80.6844 16.664L82.4284 22.328L84.0444 14.072C84.0764 13.8907 84.2097 13.8 84.4444 13.8H85.2764C85.3617 13.8 85.4364 13.832 85.5004 13.896C85.5644 13.96 85.5964 14.0347 85.5964 14.12C85.5964 14.1307 85.591 14.152 85.5804 14.184C85.5804 14.216 85.5804 14.2533 85.5804 14.296L83.5164 24.568C83.4844 24.7067 83.4257 24.8133 83.3404 24.888C83.2657 24.9627 83.159 25 83.0204 25H82.3964C82.247 25 82.1297 24.9627 82.0444 24.888C81.959 24.8133 81.9004 24.7173 81.8684 24.6L79.8844 18.504L77.9164 24.6C77.8737 24.7173 77.8097 24.8133 77.7244 24.888C77.6497 24.9627 77.5377 25 77.3884 25H76.7644ZM86.4994 25C86.414 25 86.3394 24.968 86.2754 24.904C86.2114 24.84 86.1794 24.7653 86.1794 24.68C86.1794 24.6267 86.1847 24.568 86.1954 24.504L90.1634 14.152C90.206 14.0453 90.2647 13.96 90.3394 13.896C90.414 13.832 90.526 13.8 90.6754 13.8H91.7634C91.902 13.8 92.0087 13.832 92.0834 13.896C92.1687 13.96 92.2327 14.0453 92.2754 14.152L96.2274 24.504C96.2487 24.568 96.2594 24.6267 96.2594 24.68C96.2594 24.7653 96.2274 24.84 96.1634 24.904C96.0994 24.968 96.0247 25 95.9394 25H95.1234C94.9954 25 94.8994 24.968 94.8354 24.904C94.782 24.84 94.7447 24.7813 94.7234 24.728L93.8434 22.456H88.5954L87.7154 24.728C87.7047 24.7813 87.6674 24.84 87.6034 24.904C87.5394 24.968 87.4434 25 87.3154 25H86.4994ZM89.0594 21.08H93.3794L91.2194 15.4L89.0594 21.08Z" fill="#0D0625"/>
    <path d="M16.7328 6.38019C16.7328 4.56659 18.1978 3.09112 19.9985 3.09112C20.8709 3.09112 21.6912 3.43329 22.3079 4.05433C22.9245 4.67537 23.2642 5.50151 23.2642 6.38019V9.34763L25.3405 8.13991V6.38019C25.3405 4.94278 24.7847 3.59159 23.7762 2.5755C22.7673 1.55941 21.4261 1 19.9988 1C17.0531 1 14.6568 3.41342 14.6568 6.38019V18.1509L23.2646 23.1566V33.5385C23.2646 35.3521 21.7996 36.8275 19.9988 36.8275C19.1261 36.8275 18.3058 36.4854 17.6892 35.8643C17.0725 35.2433 16.7328 34.4171 16.7328 33.5385V30.5717L14.6565 31.7784V33.5385C14.6565 34.9762 15.2126 36.3274 16.2218 37.3428C17.2307 38.3589 18.572 38.9183 19.9985 38.9183C22.9442 38.9183 25.3405 36.5049 25.3405 33.5381V21.7691L16.7328 16.7637V6.38019Z" fill="#0CCFAC"/>
    <path d="M34.3474 22.0901L26.4573 17.5021L32.2343 14.1426C32.5784 13.9419 32.7925 13.5691 32.7925 13.1696C32.7925 12.9736 32.7406 12.7796 32.6423 12.6085C32.4932 12.3482 32.2527 12.1623 31.9652 12.0848C31.6776 12.007 31.377 12.0464 31.1188 12.1967L22.1499 17.4122L33.3091 23.9007C34.0645 24.3396 34.6052 25.0495 34.831 25.8992C35.0567 26.7483 34.9403 27.6347 34.5029 28.3955C33.9221 29.4085 32.8383 30.038 31.6746 30.038C31.1041 30.038 30.541 29.8861 30.0457 29.5988L27.4919 28.1139V30.5287L29.0094 31.4101C29.8193 31.8806 30.7409 32.1291 31.6749 32.1291C33.5773 32.1291 35.3499 31.0999 36.301 29.4429C36.3902 29.2876 36.4722 29.1277 36.5447 28.9667V28.9663C36.6173 28.806 36.6825 28.6407 36.7387 28.4746C36.7671 28.3911 36.7929 28.3076 36.8169 28.2234C36.9607 27.7185 37.0293 27.1962 37.0206 26.6711C37.0136 26.2303 36.952 25.7884 36.8377 25.358C36.4682 23.9687 35.5837 22.8082 34.3474 22.0901Z" fill="#0CCFAC"/>
    <path d="M21.114 6.38036C21.114 6.08028 20.998 5.79805 20.7873 5.58588C20.5767 5.3737 20.2964 5.25684 19.9985 5.25684C19.3832 5.25684 18.8829 5.76101 18.8829 6.38036V15.513L19.9985 16.161L30.0418 10.3218C30.5394 10.0332 31.1035 9.88026 31.6733 9.88026C32.8377 9.88026 33.9222 10.5111 34.503 11.5268C34.7896 12.0253 34.9411 12.5934 34.9411 13.1697C34.9411 14.34 34.3164 15.4305 33.3109 16.0165L30.7561 17.5025L32.8324 18.7095L34.3509 17.8268C35.9954 16.8673 37.017 15.0826 37.017 13.17C37.017 12.2263 36.7696 11.2968 36.3011 10.4818C35.35 8.8214 33.5767 7.78982 31.6727 7.78982C30.7387 7.78982 29.8154 8.03938 29.0032 8.51122L21.1134 13.0986V6.38036H21.114Z" fill="#E651F3"/>
    <path d="M3.65454 15.7896C3.71941 15.9072 3.79298 16.0281 3.87993 16.1591C4.0906 16.4777 4.33304 16.7714 4.60055 17.0317C4.91489 17.3379 5.26835 17.6059 5.65157 17.8286L13.5414 22.4166L7.76463 25.7761C7.42053 25.9768 7.20685 26.3496 7.20685 26.7491C7.20685 26.9451 7.25868 27.1391 7.357 27.3102C7.55563 27.6567 7.92681 27.8723 8.32542 27.8723C8.5197 27.8723 8.71164 27.8204 8.88052 27.7224L17.8481 22.5076L6.68987 16.018C5.9338 15.5781 5.39308 14.8682 5.16769 14.0195C4.94298 13.1701 5.06002 12.2837 5.49674 11.5232C6.07826 10.5098 7.16171 9.88035 8.32441 9.88035C8.89556 9.88035 9.45936 10.0326 9.9546 10.3209L12.5071 11.8058V9.391L10.9916 8.50828C10.1817 8.03779 9.25939 7.78924 8.32441 7.78924C6.42169 7.78924 4.64938 8.8188 3.69935 10.4755C2.98407 11.7202 2.79347 13.1708 3.16264 14.56C3.27701 14.9911 3.44253 15.4047 3.65454 15.7896Z" fill="#0CCFAC"/>
    <path d="M8.32444 12.0461C7.92651 12.0461 7.556 12.2613 7.35736 12.6082C7.20822 12.8682 7.16809 13.1706 7.24534 13.4603C7.32225 13.7502 7.50684 13.9927 7.76533 14.1429L12.5074 16.9009V14.3056L8.88055 12.1963C8.71067 12.0979 8.51839 12.0461 8.32444 12.0461Z" fill="#E651F3"/>
    <path d="M18.8838 33.5386C18.8838 33.8387 18.9998 34.1209 19.2105 34.3331C19.4212 34.5453 19.7014 34.6622 19.9997 34.6622C20.6146 34.6622 21.1152 34.158 21.1152 33.5386V24.4066L20 23.7576L19.9977 23.7586L9.95702 29.5979C9.46044 29.8862 8.89631 30.0384 8.32549 30.0384C7.16112 30.0384 6.07633 29.4083 5.49481 28.3935C5.20823 27.8927 5.05675 27.3242 5.05675 26.7493C5.05675 25.5797 5.68174 24.4888 6.68794 23.9028L9.24174 22.4175L7.16546 21.2098L5.64763 22.0922C4.00239 23.0521 2.98047 24.8367 2.98047 26.7493C2.98047 27.6923 3.22792 28.6219 3.69642 29.4379C4.64811 31.0983 6.42176 32.1295 8.32549 32.1295C9.2598 32.1295 10.1827 31.8803 10.995 31.4084L18.8838 26.8207V33.5386V33.5386Z" fill="#E651F3"/>
    <path d="M31.675 27.8727C32.0726 27.8727 32.4431 27.6575 32.642 27.3106C32.7912 27.0506 32.831 26.7481 32.7541 26.4585C32.6772 26.1685 32.4926 25.926 32.2344 25.7762L27.4923 23.0192V25.6132L31.1192 27.7221C31.2881 27.8205 31.4803 27.8727 31.675 27.8727Z" fill="#E651F3"/>
</svg>
