<svg width="80" height="80" viewBox="0 0 80 80" fill="none" xmlns="http://www.w3.org/2000/svg">
    <g clip-path="url(#clip0)" fill="#fff">
        <path d="M55.6998 54.2829H51.7434C50.9668 54.2829 50.3372 54.9126 50.3372 55.6892C50.3372 56.4658 50.9668 57.0954 51.7434 57.0954H51.8328C48.3054 59.5442 44.1077 60.8381 39.7377 60.7811C34.2881 60.7109 29.164 58.5494 25.3095 54.6948C24.125 53.5103 23.0952 52.2006 22.235 50.7864H27.9724C28.7491 50.7864 29.3787 50.1568 29.3787 49.3802V30.771C29.3787 29.9944 28.7491 29.3647 27.9724 29.3647H17.4062C16.6296 29.3647 16 29.9944 16 30.771V49.3802C16 50.1568 16.6296 50.7864 17.4062 50.7864H19.0144C20.1309 52.9577 21.5783 54.9412 23.3207 56.6835C27.6969 61.0598 33.5143 63.5137 39.7015 63.5934C39.8055 63.5947 39.9089 63.5954 40.0127 63.5954C45.2238 63.5954 50.2014 61.9048 54.2937 58.7817V59.6455C54.2937 60.4222 54.9233 61.0518 55.6999 61.0518C56.4766 61.0518 57.1062 60.4222 57.1062 59.6455V55.6891C57.1061 54.9126 56.4765 54.2829 55.6998 54.2829ZM18.8125 32.1772H26.5662V47.9739H18.8125V32.1772Z"/>
        <path d="M62.5941 30.1509H61.439C60.2728 27.6105 58.6729 25.3124 56.6769 23.3164C52.3304 18.9698 46.5528 16.5163 40.4084 16.4081C35.0511 16.3157 29.9093 18.0087 25.7041 21.2165V20.3542C25.7041 19.5775 25.0745 18.9479 24.2979 18.9479C23.5212 18.9479 22.8916 19.5775 22.8916 20.3542V24.3106C22.8916 25.0872 23.5212 25.7169 24.2979 25.7169H28.2543C29.0309 25.7169 29.6605 25.0872 29.6605 24.3106C29.6605 23.534 29.0309 22.9044 28.2543 22.9044H28.1641C31.7199 20.4366 35.9567 19.143 40.3588 19.2201C45.7707 19.3155 50.8597 21.4764 54.6882 25.3049C56.1341 26.7508 57.3434 28.3762 58.2986 30.1508H52.0279C51.2513 30.1508 50.6216 30.7804 50.6216 31.557V49.2287C50.6216 50.0053 51.2513 50.6349 52.0279 50.6349H62.5941C63.3707 50.6349 64.0003 50.0053 64.0003 49.2287V31.5572C64.0003 30.7805 63.3707 30.1509 62.5941 30.1509ZM61.1878 47.8226H53.4341V32.9634H61.1878V47.8226Z"/>
        <path d="M41.8803 38.5955C40.6081 38.1458 39.2012 37.6026 38.4122 36.9839C38.1642 36.7894 38.0569 36.344 38.1452 35.8758C38.1892 35.6421 38.3949 34.8614 39.1938 34.6207C40.5048 34.2256 41.4043 34.7495 41.7302 34.9932C42.3524 35.4581 43.2334 35.331 43.6984 34.7089C44.1634 34.0867 44.0361 33.2056 43.4141 32.7405C43.1189 32.5198 42.3796 32.036 41.3197 31.8011V31.2288C41.3197 30.4521 40.6901 29.8225 39.9135 29.8225C39.1369 29.8225 38.5072 30.4521 38.5072 31.2288V31.8929C38.4657 31.9045 38.4245 31.9152 38.3825 31.9279C36.8423 32.3917 35.6924 33.7049 35.3814 35.3549C35.0952 36.8736 35.5914 38.3458 36.6766 39.197C37.5706 39.8981 38.8066 40.4921 40.943 41.2474C42.3654 41.7501 42.3346 42.9013 42.2554 43.3729C42.0947 44.329 41.2903 45.3624 39.9042 45.3715C38.5455 45.3811 38.1214 45.3133 37.0771 44.6302C36.4271 44.205 35.5556 44.3873 35.1305 45.0372C34.7053 45.6872 34.8876 46.5587 35.5374 46.9839C36.6637 47.7207 37.4947 48.0196 38.5073 48.1286V48.7714C38.5073 49.5481 39.137 50.1777 39.9136 50.1777C40.6902 50.1777 41.3198 49.5481 41.3198 48.7714V47.9935C42.0946 47.7802 42.8006 47.3906 43.404 46.8362C44.259 46.0505 44.8361 44.9863 45.0289 43.8392C45.4208 41.5069 44.1555 39.3998 41.8803 38.5955Z"/>
    </g>
    <defs>
        <clipPath id="clip0">
            <path fill="#fff" transform="translate(16 16)" d="M0 0H48V48H0z"/>
        </clipPath>
    </defs>
</svg>